# xmcd
#
# Track frame offsets:
#	150
#	14737
#	28626
#	43004
#	59002
#	73459
#	89958
#	108846
#	122645
#	140022
#	156437
#	177887
#	194729
#	209763
#	212199
#	228803
#	229629
#	234684
#	240565
#	251358
#	253533
#	255033
#	256585
#	269486
#
# Disc length: 3982 seconds
#
# Revision: 6
# Processed by: cddbd v1.5.2PL0 Copyright (c) Steve Scherf et al.
# Submitted via: EasyCDDAExtractor 15.3.0.1
#
DISCID=6a0f8c18
DTITLE=Selena - Entre A Mi Mundo (20 Years Of Music)
DYEAR=2002
DGENRE=Latin
TTITLE0=Si La Quieres
TTITLE1=Como La Flor
TTITLE2=Yo Te Sigo Queriendo
TTITLE3=Que Creias
TTITLE4=Las Cadenas
TTITLE5=Vuelve A Mi
TTITLE6=La Carcacha
TTITLE7=Siempre Estoy Pensando En Ti
TTITLE8=Missing My Baby
TTITLE9=Amame
TTITLE10=Buenos Amigos (Duet With Alvaro Torres)
TTITLE11=Where Did The Feeling Go
TTITLE12=Intro (Spoken Liner Notes By The Band And Family)
TTITLE13=Si La Quieres (Spoken Liner Notes By The Band And Family)
TTITLE14=Como La Flor (Spoken Liner Notes By The Band And Family)
TTITLE15=Yo Te Sigo Queriendo (Spoken Liner Notes By The Band And Family)
TTITLE16=Que Creias (Spoken Liner Notes By The Band And Family)
TTITLE17=Las Cadenas (Spoken Liner Notes By The Band And Family)
TTITLE18=La Carcacha (Spoken Liner Notes By The Band And Family)
TTITLE19=Siempre Estoy Pensando En Ti (Spoken Liner Notes By The Band And Fami
TTITLE19=ly)
TTITLE20=Missing My Baby (Spoken Liner Notes By The Band And Family)
TTITLE21=Amame (Spoken Liner Notes By The Band And Family)
TTITLE22=Outro (Spoken Liner Notes By The Band And Family)
TTITLE23=Data Track
EXTD=
EXTT0=
EXTT1=
EXTT2=
EXTT3=
EXTT4=
EXTT5=
EXTT6=
EXTT7=
EXTT8=
EXTT9=
EXTT10=
EXTT11=
EXTT12=
EXTT13=
EXTT14=
EXTT15=
EXTT16=
EXTT17=
EXTT18=
EXTT19=
EXTT20=
EXTT21=
EXTT22=
EXTT23=
PLAYORDER=
